:SAMPLES-PER-SECOND 30
:FULLY-SPECIFIED
:DEGREES
671
root  9.15419 34.4007 25.4181 4.75934 -3.65602 1.93028
LeftUpLeg  -11.813 9.52258 -3.64238
LeftLeg  11.1897 4.17726 0.548738
LeftFoot  1.55026 -0.00362206 0.128066
LeftToes  -5.91128 2.60077e-006 -1.42232e-007
Spine  3.95288 1.75101 -1.24232
Spine1  7.86974 3.59737 -2.32684
RightShoulder  -0.00908941 4.69799 0.481463
RightArm  46.5808 -30.479 43.3349
RightForeArm  91.8433 77.6216 54.0334
RightHand  -5.05027 11.1849 -48.1468
LeftShoulder1  0.0171669 -1.75207 -8.73571
LeftArm  56.3232 19.3831 -33.4396
LeftForeArm  81.0353 -74.3059 -39.0953
LeftHand  -7.44332 -14.272 54.5619
HEad  -36.3303 47.321 -36.0786
RightUpLeg  -20.071 -14.6658 -10.1869
RightLeg  35.2495 1.85772 1.12596
RightFoot  4.02704 0.0058987 0.158982
RightToes  -40.3293 -0.221119 -0.311175
672
root  8.57068 34.4266 25.7686 5.04552 -0.5691 1.56779
LeftUpLeg  -11.485 8.27214 -2.24049
LeftLeg  10.9448 2.3804 0.302019
LeftFoot  1.96057 -0.00297893 0.094189
LeftToes  -8.07233 2.60077e-006 -1.42232e-007
Spine  3.89725 1.75664 -1.19762
Spine1  7.76061 3.60105 -2.23481
RightShoulder  -0.00898964 4.87347 0.31966
RightArm  47.0546 -29.6339 43.4179
RightForeArm  89.3024 77.3066 52.0534
RightHand  -5.08132 11.223 -48.2634
LeftShoulder1  0.017832 -2.26503 -8.59129
LeftArm  56.4779 19.5962 -33.8747
LeftForeArm  80.5337 -73.9343 -37.9604
LeftHand  -7.35612 -13.689 55.9963
HEad  -35.3088 46.2368 -35.0738
RightUpLeg  -15.7123 -5.09988 -12.7918
RightLeg  19.347 0.320727 0.0888892
RightFoot  4.46778 0.0134245 0.0334013
RightToes  -39.5494 -0.214894 -0.312563
673
root  7.98346 34.4385 26.1494 5.20395 2.84526 1.42754
LeftUpLeg  -11.1297 7.06658 -1.01868
LeftLeg  10.6647 0.233117 0.0273196
LeftFoot  2.41141 -0.0004259 0.020227
LeftToes  -10.3169 2.60077e-006 -1.42232e-007
Spine  3.75043 1.78871 -1.14518
Spine1  7.469 3.65589 -2.12848
RightShoulder  -0.00882198 4.89147 0.00439873
RightArm  46.9517 -29.4177 43.6601
RightForeArm  88.4041 77.1478 51.1194
RightHand  -5.00094 11.1463 -47.875
LeftShoulder1  0.0182457 -2.46914 -8.49556
LeftArm  56.807 19.7109 -33.9863
LeftForeArm  80.37 -73.8464 -37.7025
LeftHand  -7.50989 -13.765 56.7223
HEad  -33.9044 45.4957 -34.3502
RightUpLeg  -13.4931 -1.81735 -14.8335
RightLeg  10.6077 5.98727 0.727631
RightFoot  2.13473 0.00256576 0.239756
RightToes  -41.3097 -0.229029 -0.3224
674
root  7.31329 34.4357 26.4998 5.10474 6.42717 1.41854
LeftUpLeg  -10.9431 5.64764 0.270896
LeftLeg  10.8251 -1.88975 -0.23804
LeftFoot  2.9008 0.00221068 -0.0873198
LeftToes  -12.5913 2.60077e-006 -1.42232e-007
Spine  3.66392 1.86734 -1.07031
Spine1  7.29833 3.80425 -1.97497
RightShoulder  -0.0086063 4.80341 0.0255222
RightArm  47.1038 -29.1469 43.5794
RightForeArm  89.2265 77.1587 51.1734
RightHand  -5.08184 11.3149 -47.9155
LeftShoulder1  0.0184157 -2.34601 -8.34518
LeftArm  56.9278 19.5398 -34.1092
LeftForeArm  80.7786 -73.9524 -38.0123
LeftHand  -7.55979 -13.8824 56.6292
HEad  -33.0736 45.4854 -34.5458
RightUpLeg  -14.2378 -3.75971 -15.6096
RightLeg  12.3976 13.2268 2.01287
RightFoot  3.11358 -0.0101454 0.750674
RightToes  -48.4646 -0.289382 -0.357779
675
root  6.57752 34.4214 26.7506 5.13257 9.70558 1.42241
LeftUpLeg  -11.1156 4.25828 1.61985
LeftLeg  10.8273 -3.76056 -0.472334
LeftFoot  3.68057 0.00718347 -0.234877
LeftToes  -15.1305 2.60077e-006 -1.42232e-007
Spine  3.61268 1.94803 -0.983966
Spine1  7.19965 3.95838 -1.80079
RightShoulder  -0.00846978 4.97172 -0.0552468
RightArm  48.2492 -28.355 43.3462
RightForeArm  89.7686 77.1481 51.1055
RightHand  -5.12199 11.2108 -48.6547
LeftShoulder1  0.0183499 -2.01503 -8.3156
LeftArm  56.6166 19.5751 -34.1567
LeftForeArm  82.0525 -74.3334 -39.1739
LeftHand  -7.66376 -14.2411 56.0505
HEad  -33.4618 46.0603 -35.6389
RightUpLeg  -16.2871 -3.06654 -16.2932
RightLeg  20.1578 20.2753 5.85866
RightFoot  2.63877 -0.0149106 1.02466
RightToes  -48.8187 -0.292479 -0.359331
676
root  5.75938 34.399 27.0025 5.33746 13.1213 1.51632
LeftUpLeg  -11.3863 3.18427 2.98084
LeftLeg  10.2462 -6.00474 -0.690878
LeftFoot  4.9613 0.0223167 -0.515134
LeftToes  -18.0931 2.60077e-006 -1.42232e-007
Spine  3.69036 1.94786 -0.944283
Spine1  7.35796 3.95796 -1.72084
RightShoulder  -0.00837121 5.25363 -0.425094
RightArm  49.6106 -27.4712 43.2084
RightForeArm  89.5679 77.2073 51.4549
RightHand  -5.08819 10.9713 -49.3119
LeftShoulder1  0.0180561 -1.80747 -8.54936
LeftArm  56.4297 19.5086 -33.8935
LeftForeArm  83.0724 -74.6356 -40.1504
LeftHand  -7.67451 -14.2247 56.1733
HEad  -34.6607 46.329 -37.2097
RightUpLeg  -18.1428 -1.91949 -16.7821
RightLeg  29.0254 29.2913 13.0609
RightFoot  3.6338 -0.0596492 2.25734
RightToes  -53.2737 -0.33222 -0.377208
677
root  4.85592 34.3563 27.3171 4.93722 17.0069 1.19444
LeftUpLeg  -11.22 2.35314 4.86594
LeftLeg  9.34544 -8.85477 -0.875661
LeftFoot  6.36274 0.0547336 -0.984712
LeftToes  -21.3145 2.60077e-006 -1.42232e-007
Spine  3.90055 1.92807 -0.821444
Spine1  7.78366 3.91389 -1.47233
RightShoulder  -0.0082454 5.42552 -0.634544
RightArm  50.1494 -27.0004 42.8499
RightForeArm  89.4169 77.3895 52.5626
RightHand  -5.02647 10.9368 -48.9178
LeftShoulder1  0.0175419 -1.91393 -8.722
LeftArm  56.3674 19.4659 -33.7528
LeftForeArm  83.697 -74.8259 -40.793
LeftHand  -7.53273 -13.8009 56.7424
HEad  -34.7341 46.3134 -37.4354
RightUpLeg  -16.1248 3.12389 -16.8537
RightLeg  27.8405 34.6099 14.3159
RightFoot  2.34942 -0.0288554 1.78415
RightToes  -51.876 -0.319604 -0.371933
678
root  3.91849 34.2073 27.6895 4.63113 21.6473 1.78956
LeftUpLeg  -11.1704 0.413968 5.99939
LeftLeg  8.50923 -11.4954 -0.965217
LeftFoot  7.57776 0.101459 -1.53196
LeftToes  -24.6425 2.60077e-006 -1.42232e-007
Spine  4.14371 1.88855 -1.03823
Spine1  8.26252 3.85427 -1.89957
RightShoulder  -0.00805684 5.41359 -1.00442
RightArm  49.4619 -27.2193 43.5637
RightForeArm  89.7262 77.6023 53.9298
RightHand  -5.03328 11.3717 -47.2916
LeftShoulder1  0.0168152 -2.40151 -8.70024
LeftArm  56.2289 19.3714 -33.2616
LeftForeArm  84.8187 -75.1 -41.7563
LeftHand  -7.38808 -13.3717 57.3439
HEad  -33.3988 45.9807 -35.9742
RightUpLeg  -13.363 9.38962 -17.158
RightLeg  24.0288 32.8292 11.388
RightFoot  -0.0710165 -0.000253319 -0.0315103
RightToes  -49.649 -0.299778 -0.362896
679
root  2.95573 33.9823 27.973 4.38265 26.6456 2.95742
LeftUpLeg  -11.7393 -2.56763 6.64997
LeftLeg  8.55321 -13.4953 -1.14039
LeftFoot  8.53723 0.152113 -2.03777
LeftToes  -27.9627 2.60077e-006 -1.42232e-007
Spine  4.71127 1.90364 -1.41032
Spine1  9.3849 3.92242 -2.62374
RightShoulder  -0.00782883 5.19914 -1.14494
RightArm  48.6796 -26.5392 44.54
RightForeArm  90.1134 77.7002 54.5878
RightHand  -5.02847 11.6697 -46.1578
LeftShoulder1  0.0158837 -3.46129 -8.69775
LeftArm  55.6215 19.2446 -32.4937
LeftForeArm  87.1295 -75.3425 -42.6387
LeftHand  -7.61673 -13.4801 58.4361
HEad  -32.9025 44.3025 -35.3164
RightUpLeg  -11.6159 10.0493 -16.3038
RightLeg  25.3127 28.6125 10.767
RightFoot  -4.67616 -0.126016 -2.70848
RightToes  -48.3186 -0.288108 -0.357133
